<?xml version="1.0" encoding="utf-8"?>
<!-- Generator: Adobe Illustrator 17.0.0, SVG Export Plug-In . SVG Version: 6.00 Build 0)  -->
<!DOCTYPE svg PUBLIC "-//W3C//DTD SVG 1.1//EN" "http://www.w3.org/Graphics/SVG/1.1/DTD/svg11.dtd">
<svg version="1.1" id="Capa_1" xmlns="http://www.w3.org/2000/svg" xmlns:xlink="http://www.w3.org/1999/xlink" x="0px" y="0px"
	 width="800px" height="800px" viewBox="0 0 800 800" enable-background="new 0 0 800 800" xml:space="preserve">
<g>
	<path fill="#504F51" d="M399.454,791.507C186.351,792.451,2.374,616.087,8.555,387.846C14.059,184.597,183.191,1.792,414.096,8.678
		c202.773,6.046,384.743,175.446,377.278,406.046C784.751,619.323,616.155,791.914,399.454,791.507z M674.515,622.37
		c110.19-131.855,110.672-342.171-30.574-478.855c-132.256-127.984-351.153-129.1-485.037-2.489
		C16.336,275.85,13.533,487.644,125.133,621.917c0.506-1.095,1.031-2.053,1.398-3.067c0.687-1.901,1.393-3.806,1.898-5.759
		c24.498-94.762,83.154-159.234,173.372-195.86c7.39-3,13.331-1.874,20.538,1.579c51.66,24.752,103.749,24.79,155.367-0.013
		c7.797-3.747,14.155-4.145,21.685-1.141c68.443,27.306,119.731,73.22,152.502,139.574
		C662.098,577.896,668.557,599.792,674.515,622.37z"/>
	<path fill="#504F51" d="M539.591,260.962c2.01,72.966-61.747,142.334-145.153,139.254
		c-73.949-2.731-135.282-66.159-134.306-141.937c0.977-75.906,65.838-138.267,140.686-137.953
		C474.56,120.635,541.861,183.091,539.591,260.962z"/>
</g>
</svg>
